<svg xmlns="http://www.w3.org/2000/svg" xmlns:xlink="http://www.w3.org/1999/xlink" viewBox="0 0 1080 1080" width="1080" height="1080" style="width: 100%; height: 100%; transform: translate3d(0px, 0px, 0px); content-visibility: visible;" preserveAspectRatio="xMidYMid meet" id="Dots Loader">
<defs>
<clipPath id="__lottie_element_138">
<rect width="1080" height="1080" x="0" y="0"/>
</clipPath>
<mask id="__lottie_element_140">
<path fill="#ffffff" clip-rule="nonzero" d=" M735,525 C732.5960083007812,525.4860229492188 730.8330078125,525.8410034179688 729.302001953125,526.39697265625 C727.77099609375,526.9530029296875 726.4730224609375,527.7100219726562 725,529 C723.8079833984375,530.0440063476562 722.5999755859375,531.60498046875 721.5440063476562,533.25 C720.4879760742188,534.89501953125 719.5830078125,536.6220092773438 719,538 C716.093017578125,544.864990234375 715.4559936523438,553.2559814453125 716.364013671875,561.4849853515625 C717.27197265625,569.7139892578125 719.7260131835938,577.781005859375 723,584 C723.989990234375,585.8790283203125 725.291015625,587.5020141601562 726.6939697265625,589.093994140625 C728.0969848632812,590.6859741210938 729.6019897460938,592.2459716796875 731,594 C731.322998046875,594.406005859375 731.427978515625,594.968994140625 731.5250244140625,595.5250244140625 C731.6220092773438,596.0809936523438 731.7109985351562,596.6290283203125 732,597 C733.3939819335938,598.7890014648438 735.1820068359375,600.302001953125 736.97802734375,601.6119995117188 C738.7739868164062,602.9210205078125 740.5770263671875,604.0269775390625 742,605 C742.031982421875,605.02197265625 742.2470092773438,605.239013671875 742.4719848632812,605.4669799804688 C742.697021484375,605.6950073242188 742.9320068359375,605.9349975585938 743,606 C743.4190063476562,606.4010009765625 743.9559936523438,606.697021484375 744.4949951171875,606.9949951171875 C745.0339965820312,607.2930297851562 745.5750122070312,607.5919799804688 746,608 C751.9149780273438,613.6669921875 764.3270263671875,617.1430053710938 773,618 C797.31298828125,620.4019775390625 822.1580200195312,609.9400024414062 823,591 C823.4429931640625,581.0280151367188 815.0650024414062,569.281982421875 807,560 C803.6480102539062,556.1420288085938 799.9409790039062,551.4559936523438 796,548 C794.9730224609375,547.0999755859375 793.1920166015625,546.9559936523438 792,546 C790.9099731445312,545.1259765625 790.0830078125,543.760009765625 789,543 C782.8779907226562,538.7050170898438 778.781982421875,537.0599975585938 772,534 C764.85302734375,530.7750244140625 758.1840209960938,527.9190063476562 750,526 C745.3709716796875,524.9149780273438 741.4710083007812,523.864013671875 737,524 C735.93701171875,524.031982421875 735.406005859375,524.9180297851562 735,525" fill-opacity="0"/>
</mask>
<filter id="__lottie_element_141">
<feColorMatrix type="matrix" color-interpolation-filters="sRGB" values="0 0 0 0 0.20000000298023224 0 0 0 0 0.20000000298023224 0 0 0 0 0.20000000298023224 0 0 0 1 0" result="filter_result_0"/>
</filter>
<filter id="__lottie_element_147">
<feColorMatrix type="matrix" color-interpolation-filters="sRGB" values="0 0 0 0 0.20000000298023224 0 0 0 0 0.20000000298023224 0 0 0 0 0.20000000298023224 0 0 0 1 0" result="filter_result_0"/>
</filter>
<mask id="__lottie_element_152">
<path fill="#ffffff" clip-rule="nonzero" d=" M822,508 C813.7119750976562,509.41400146484375 805.5640258789062,512.7899780273438 798.18798828125,516.875 C790.81201171875,520.9600219726562 784.2069702148438,525.7529907226562 779,530 C778.614013671875,530.3150024414062 778.052001953125,530.6329956054688 777.4929809570312,530.9630126953125 C776.9340209960938,531.2930297851562 776.3770141601562,531.635986328125 776,532 C774.2360229492188,533.7069702148438 772.3510131835938,536.166015625 770.5999755859375,538.593994140625 C768.8489990234375,541.02197265625 767.2310180664062,543.4190063476562 766,545 C765.6729736328125,545.4190063476562 765.0850219726562,545.7020263671875 764.4970092773438,545.989013671875 C763.9089965820312,546.2760009765625 763.322021484375,546.5670166015625 763,547 C762.6859741210938,547.4219970703125 763.219970703125,548.510986328125 763,549 C762.85400390625,549.323974609375 761.2470092773438,549.6300048828125 761,550 C760.6929931640625,550.4600219726562 761.22998046875,551.489013671875 761,552 C760.85400390625,552.322998046875 759.2470092773438,552.6320190429688 759,553 C751.8809814453125,563.6010131835938 747.3150024414062,576.7059936523438 752,586 C755.3670043945312,592.677978515625 762.8839721679688,597.3779907226562 770,600 C785.2169799804688,605.6060180664062 807.239013671875,602.4019775390625 818,597 C828.5989990234375,591.6790161132812 838.2449951171875,583.06298828125 844,574 C845.2630004882812,572.0120239257812 845.3150024414062,570.52099609375 846,569 C846.1640014648438,568.635986328125 847.7760009765625,568.4409790039062 848,568 C848.635009765625,566.7459716796875 848.6079711914062,564.916015625 849,564 C850.2139892578125,561.1669921875 850.291015625,560.1599731445312 851,557 C851.0819702148438,556.6329956054688 852.8829956054688,554.5230102539062 853,554 C856.4240112304688,538.656005859375 852.593017578125,520.3259887695312 846,513 C840.593994140625,506.9930114746094 831.7429809570312,506.3380126953125 822,508" fill-opacity="1"/>
</mask>
<filter id="__lottie_element_153">
<feColorMatrix type="matrix" color-interpolation-filters="sRGB" values="0 0 0 0 0.20000000298023224 0 0 0 0 0.20000000298023224 0 0 0 0 0.20000000298023224 0 0 0 1 0" result="filter_result_0"/></filter></defs><g clip-path="url(#__lottie_element_138)"><g mask="url(#__lottie_element_152)" filter="url(#__lottie_element_153)" style="display: none;" transform="matrix(1,0,0,1,0,0)" opacity="1">
<rect width="1080" height="1080" fill="#52.020c49ba5e34cc99"/></g>
<g mask="url(#__lottie_element_140)" filter="url(#__lottie_element_141)" style="display: block;" transform="matrix(1,0,0,1,0,0)" opacity="1"><rect width="1080" height="1080" fill="#52.020c49ba5e34cc99"/></g><g style="display: block;" transform="matrix(1,0,0,1,1007,604)" opacity="1"><g opacity="1" transform="matrix(1,0,0,1,-216,-68)"><path fill="rgb(51,51,51)" fill-opacity="1" d=" M0,-66 C36.42539978027344,-66 66,-36.42539978027344 66,0 C66,36.42539978027344 36.42539978027344,66 0,66 C-36.42539978027344,66 -66,36.42539978027344 -66,0 C-66,-36.42539978027344 -36.42539978027344,-66 0,-66z"/></g></g><g filter="url(#__lottie_element_147)" style="display: block;" transform="matrix(1,0,0,1,756,590.7587890625)" opacity="1"><g opacity="1" transform="matrix(1,0,0,1,-216,-68)"><path fill="rgb(82,204,153)" fill-opacity="1" d=" M0,-66 C36.42539978027344,-66 66,-36.42539978027344 66,0 C66,36.42539978027344 36.42539978027344,66 0,66 C-36.42539978027344,66 -66,36.42539978027344 -66,0 C-66,-36.42539978027344 -36.42539978027344,-66 0,-66z"/></g></g>
<g style="display: none;" transform="matrix(-0.00010411038965685293,0,0,-0.00010411038965685293,292.4775085449219,539.992919921875)" opacity="1"><g opacity="1" transform="matrix(1,0,0,1,-216,-68)"><path fill="rgb(255,190,102)" fill-opacity="1" d=" M0,-66 C36.42539978027344,-66 66,-36.42539978027344 66,0 C66,36.42539978027344 36.42539978027344,66 0,66 C-36.42539978027344,66 -66,36.42539978027344 -66,0 C-66,-36.42539978027344 -36.42539978027344,-66 0,-66z"/></g></g></g></svg>